<?xml version="1.0" encoding="UTF-8"?>
<svg xmlns="http://www.w3.org/2000/svg" viewBox="0 0 128 128">
    <defs>
        <linearGradient id="g" x1="0" y1="0" x2="1" y2="1">
            <stop offset="0%" stop-color="#4f46e5"/>
            <stop offset="100%" stop-color="#06b6d4"/>
        </linearGradient>
    </defs>
    <rect width="128" height="128" rx="20" fill="url(#g)"/>
    <g fill="#fff" transform="translate(16,16)">
        <path d="M24 80h48a8 8 0 0 0 8-8V24a8 8 0 0 0-8-8H44l-4 8H24a8 8 0 0 0-8 8v40a8 8 0 0 0 8 8z" opacity=".15"/>
        <path d="M28 72h40a8 8 0 0 0 8-8V28a8 8 0 0 0-8-8H48l-4 8H28a8 8 0 0 0-8 8v28a8 8 0 0 0 8 8z" opacity=".3"/>
        <path d="M32 64h32a8 8 0 0 0 8-8V32a8 8 0 0 0-8-8H52l-4 8H32a8 8 0 0 0-8 8v16a8 8 0 0 0 8 8z"/>
        <circle cx="68" cy="36" r="4" fill="#06b6d4"/>
    </g>
</svg>